<svg width="165" height="35" viewBox="0 0 165 35" fill="none" xmlns="http://www.w3.org/2000/svg">
<g clip-path="url(#clip0)">
<path fill-rule="evenodd" clip-rule="evenodd" d="M38.4747 3.36528C37.5341 2.92945 36.3703 2.801 35.0696 3.01929C34.2676 3.15442 33.4126 3.42171 32.526 3.82933C31.6747 4.2221 30.8597 4.71436 30.0875 5.28532L33.22 6.73761C33.9922 6.16664 34.8072 5.67438 35.6576 5.28235C36.5442 4.87399 37.3983 4.6067 38.2012 4.47157C39.5019 4.25328 40.6657 4.38173 41.6063 4.81757L38.4747 3.36528Z" fill="#F0A72E"/>
<mask id="mask0" mask-type="alpha" maskUnits="userSpaceOnUse" x="0" y="1" width="31" height="32">
<path fill-rule="evenodd" clip-rule="evenodd" d="M0.195312 1.10077H30.5137V32.1397H0.195312V1.10077Z" fill="white"/>
</mask>
<g mask="url(#mask0)">
<path fill-rule="evenodd" clip-rule="evenodd" d="M27.382 1.62106C26.2954 1.11692 24.9491 0.969168 23.4456 1.22161C22.5171 1.37753 21.5282 1.6864 20.502 2.15936C18.7948 2.94638 17.1917 4.08979 15.8018 5.44184C13.2442 7.92987 11.4077 11.124 10.9629 14.0976C10.1954 14.2357 9.37294 14.4978 8.5291 14.8869C7.05727 15.5647 5.67567 16.5493 4.47829 17.7135C1.91235 20.206 0.185588 23.5204 0.194892 26.4056C0.203265 28.5098 1.1327 29.991 2.63338 30.6867L5.76499 32.1397C4.26338 31.4433 3.33394 29.9621 3.3265 27.8579C3.31627 24.9726 5.04396 21.6582 7.60897 19.1657C8.80728 18.0015 10.1879 17.017 11.6607 16.3391C12.5036 15.9501 13.327 15.688 14.0936 15.5499C14.5383 12.5763 16.3758 9.38215 18.9334 6.89412C20.3233 5.54207 21.9254 4.39866 23.6336 3.61164C24.6588 3.13868 25.6478 2.82981 26.5763 2.67389C28.0807 2.42071 29.426 2.5692 30.5136 3.07334L27.382 1.62106Z" fill="#F0A72E"/>
</g>
<path fill-rule="evenodd" clip-rule="evenodd" d="M23.6334 3.61178C28.4768 1.3799 32.5016 2.79506 33.2198 6.7376C33.992 6.16664 34.807 5.67438 35.6574 5.28235C40.2739 3.15516 44.0307 4.8636 44.0456 9.09645C44.0605 13.33 40.3278 18.4888 35.7114 20.6159L11.7145 31.6729C7.09147 33.803 3.34116 32.0916 3.32628 27.858C3.31139 23.6245 7.03657 18.4695 11.6596 16.3393C12.5043 15.9502 13.3268 15.6881 14.0934 15.55C14.78 10.9601 18.7824 5.84663 23.6334 3.61178" fill="#FFCA00"/>
<path fill-rule="evenodd" clip-rule="evenodd" d="M62.9332 5.44407C61.9926 5.00823 60.8287 4.87978 59.5281 5.09807C58.7252 5.2332 57.8711 5.50049 56.9835 5.90811C56.1332 6.30014 55.3182 6.79314 54.546 7.36411L57.6776 8.81639C58.4498 8.24542 59.2648 7.75242 60.1161 7.36114C61.0018 6.95203 61.8568 6.68548 62.6587 6.55035C63.9603 6.33207 65.1233 6.46051 66.0639 6.89635L62.9332 5.44407Z" fill="#D43E3E"/>
<path fill-rule="evenodd" clip-rule="evenodd" d="M51.836 3.69516C50.7493 3.19102 49.4031 3.04253 47.8996 3.29497C46.9711 3.45089 45.984 3.75976 44.9596 4.23197C43.258 5.01603 41.6596 6.15647 40.2725 7.50629C37.713 9.99655 35.8728 13.1966 35.4271 16.1732C34.6531 16.3143 33.8371 16.5734 32.9868 16.9654C31.5168 17.6426 30.1371 18.6271 28.9397 19.7905C26.3737 22.283 24.6433 25.5989 24.6535 28.4842C24.6609 30.5876 25.5922 32.0674 27.092 32.7638L30.2236 34.2153C28.7229 33.5196 27.7916 32.0399 27.7842 29.9365C27.7739 27.0512 29.5053 23.7353 32.0704 21.2428C33.2687 20.0786 34.6484 19.0948 36.1174 18.4177C36.9697 18.0257 37.7847 17.7665 38.5587 17.6255C39.0044 14.6482 40.8446 11.4488 43.4041 8.95857C44.7912 7.60875 46.3896 6.46831 48.0912 5.68351C49.1146 5.21204 50.1027 4.90317 51.0303 4.74725C52.5347 4.49481 53.88 4.6433 54.9676 5.14744L51.836 3.69516Z" fill="#D43E3E"/>
<path fill-rule="evenodd" clip-rule="evenodd" d="M48.0909 5.68366C52.9344 3.45253 56.9601 4.87362 57.6774 8.81616C58.4496 8.2452 59.2646 7.75294 60.1159 7.36091C64.7323 5.23372 68.4882 6.94216 68.5031 11.175C68.518 15.4086 64.7863 20.5673 60.1698 22.6945L36.172 33.7514C31.5564 35.8786 27.7996 34.1702 27.7847 29.9366C27.7699 25.703 31.5016 20.5443 36.118 18.4171C36.9693 18.0258 37.7852 17.7667 38.5584 17.6249C39.245 13.0357 43.2474 7.91554 48.0909 5.68366" fill="#FA7564"/>
<path d="M82.1768 24.5385V11.4585H84.7968L87.1168 17.8585C87.2635 18.2718 87.4035 18.6985 87.5368 19.1385C87.6702 19.5651 87.8102 19.9918 87.9568 20.4185H88.0368C88.1835 19.9918 88.3168 19.5651 88.4368 19.1385C88.5702 18.6985 88.7102 18.2718 88.8568 17.8585L91.1168 11.4585H93.7568V24.5385H91.6168V18.5585C91.6168 18.2518 91.6235 17.9185 91.6368 17.5585C91.6635 17.1985 91.6902 16.8385 91.7168 16.4785C91.7435 16.1051 91.7768 15.7451 91.8168 15.3985C91.8568 15.0385 91.8902 14.7051 91.9168 14.3985H91.8368L90.7768 17.4385L88.6368 23.3185H87.2568L85.0968 17.4385L84.0568 14.3985H83.9768C84.0035 14.7051 84.0302 15.0385 84.0568 15.3985C84.0968 15.7451 84.1302 16.1051 84.1568 16.4785C84.1968 16.8385 84.2235 17.1985 84.2368 17.5585C84.2635 17.9185 84.2768 18.2518 84.2768 18.5585V24.5385H82.1768ZM98.9094 24.7785C98.0427 24.7785 97.3427 24.5185 96.8094 23.9985C96.2761 23.4651 96.0094 22.7651 96.0094 21.8985C96.0094 21.3785 96.1161 20.9185 96.3294 20.5185C96.5561 20.1051 96.9027 19.7518 97.3694 19.4585C97.8494 19.1651 98.4494 18.9185 99.1694 18.7185C99.9027 18.5185 100.776 18.3651 101.789 18.2585C101.776 18.0051 101.736 17.7651 101.669 17.5385C101.616 17.2985 101.516 17.0918 101.369 16.9185C101.236 16.7318 101.056 16.5918 100.829 16.4985C100.603 16.3918 100.323 16.3385 99.9894 16.3385C99.5094 16.3385 99.0361 16.4318 98.5694 16.6185C98.1161 16.8051 97.6694 17.0318 97.2294 17.2985L96.3894 15.7585C96.9361 15.4118 97.5494 15.1118 98.2294 14.8585C98.9094 14.6051 99.6427 14.4785 100.429 14.4785C101.656 14.4785 102.569 14.8451 103.169 15.5785C103.783 16.2985 104.089 17.3451 104.089 18.7185V24.5385H102.189L102.029 23.4585H101.949C101.509 23.8318 101.036 24.1451 100.529 24.3985C100.036 24.6518 99.4961 24.7785 98.9094 24.7785ZM99.6494 22.9785C100.049 22.9785 100.409 22.8851 100.729 22.6985C101.063 22.5118 101.416 22.2451 101.789 21.8985V19.6985C101.123 19.7785 100.563 19.8851 100.109 20.0185C99.6561 20.1518 99.2894 20.3051 99.0094 20.4785C98.7294 20.6385 98.5294 20.8251 98.4094 21.0385C98.2894 21.2518 98.2294 21.4785 98.2294 21.7185C98.2294 22.1585 98.3627 22.4785 98.6294 22.6785C98.8961 22.8785 99.2361 22.9785 99.6494 22.9785ZM106.492 24.5385V14.7185H108.392L108.552 16.4585H108.632C108.979 15.8185 109.399 15.3318 109.892 14.9985C110.385 14.6518 110.892 14.4785 111.412 14.4785C111.879 14.4785 112.252 14.5451 112.532 14.6785L112.132 16.6785C111.959 16.6251 111.799 16.5851 111.652 16.5585C111.505 16.5318 111.325 16.5185 111.112 16.5185C110.725 16.5185 110.319 16.6718 109.892 16.9785C109.465 17.2718 109.099 17.7918 108.792 18.5385V24.5385H106.492ZM117.063 24.7785C116.49 24.7785 116.003 24.6918 115.603 24.5185C115.217 24.3451 114.897 24.1051 114.643 23.7985C114.403 23.4785 114.223 23.1051 114.103 22.6785C113.997 22.2385 113.943 21.7518 113.943 21.2185V16.5385H112.543V14.8185L114.063 14.7185L114.343 12.0385H116.263V14.7185H118.763V16.5385H116.263V21.2185C116.263 22.3651 116.723 22.9385 117.643 22.9385C117.817 22.9385 117.99 22.9185 118.163 22.8785C118.35 22.8385 118.517 22.7851 118.663 22.7185L119.063 24.4185C118.797 24.5118 118.49 24.5918 118.143 24.6585C117.81 24.7385 117.45 24.7785 117.063 24.7785ZM122.43 24.7785C121.564 24.7785 120.864 24.5185 120.33 23.9985C119.797 23.4651 119.53 22.7651 119.53 21.8985C119.53 21.3785 119.637 20.9185 119.85 20.5185C120.077 20.1051 120.424 19.7518 120.89 19.4585C121.37 19.1651 121.97 18.9185 122.69 18.7185C123.424 18.5185 124.297 18.3651 125.31 18.2585C125.297 18.0051 125.257 17.7651 125.19 17.5385C125.137 17.2985 125.037 17.0918 124.89 16.9185C124.757 16.7318 124.577 16.5918 124.35 16.4985C124.124 16.3918 123.844 16.3385 123.51 16.3385C123.03 16.3385 122.557 16.4318 122.09 16.6185C121.637 16.8051 121.19 17.0318 120.75 17.2985L119.91 15.7585C120.457 15.4118 121.07 15.1118 121.75 14.8585C122.43 14.6051 123.164 14.4785 123.95 14.4785C125.177 14.4785 126.09 14.8451 126.69 15.5785C127.304 16.2985 127.61 17.3451 127.61 18.7185V24.5385H125.71L125.55 23.4585H125.47C125.03 23.8318 124.557 24.1451 124.05 24.3985C123.557 24.6518 123.017 24.7785 122.43 24.7785ZM123.17 22.9785C123.57 22.9785 123.93 22.8851 124.25 22.6985C124.584 22.5118 124.937 22.2451 125.31 21.8985V19.6985C124.644 19.7785 124.084 19.8851 123.63 20.0185C123.177 20.1518 122.81 20.3051 122.53 20.4785C122.25 20.6385 122.05 20.8251 121.93 21.0385C121.81 21.2518 121.75 21.4785 121.75 21.7185C121.75 22.1585 121.884 22.4785 122.15 22.6785C122.417 22.8785 122.757 22.9785 123.17 22.9785ZM135.113 24.7785C134.353 24.7785 133.666 24.6718 133.053 24.4585C132.453 24.2318 131.933 23.8785 131.493 23.3985C131.066 22.9185 130.733 22.3051 130.493 21.5585C130.266 20.7985 130.153 19.8785 130.153 18.7985V11.4585H132.473V18.9785C132.473 19.6851 132.533 20.2851 132.653 20.7785C132.786 21.2585 132.966 21.6451 133.193 21.9385C133.433 22.2318 133.713 22.4451 134.033 22.5785C134.353 22.6985 134.713 22.7585 135.113 22.7585C135.513 22.7585 135.88 22.6985 136.213 22.5785C136.546 22.4451 136.833 22.2318 137.073 21.9385C137.313 21.6451 137.5 21.2585 137.633 20.7785C137.766 20.2851 137.833 19.6851 137.833 18.9785V11.4585H140.053V18.7985C140.053 19.8785 139.94 20.7985 139.713 21.5585C139.486 22.3051 139.153 22.9185 138.713 23.3985C138.286 23.8785 137.766 24.2318 137.153 24.4585C136.553 24.6718 135.873 24.7785 135.113 24.7785ZM142.969 24.5385V11.4585H147.089C147.809 11.4585 148.475 11.5251 149.089 11.6585C149.715 11.7918 150.255 12.0185 150.709 12.3385C151.162 12.6585 151.515 13.0785 151.769 13.5985C152.022 14.1051 152.149 14.7385 152.149 15.4985C152.149 16.2185 152.022 16.8451 151.769 17.3785C151.515 17.9118 151.162 18.3585 150.709 18.7185C150.269 19.0651 149.742 19.3251 149.129 19.4985C148.529 19.6585 147.875 19.7385 147.169 19.7385H145.289V24.5385H142.969ZM145.289 17.8785H146.989C148.909 17.8785 149.869 17.0851 149.869 15.4985C149.869 14.6718 149.615 14.1051 149.109 13.7985C148.615 13.4785 147.882 13.3185 146.909 13.3185H145.289V17.8785Z" fill="white"/>
</g>
<defs>
<clipPath id="clip0">
<rect width="164.085" height="34.1538" fill="white" transform="translate(0.195312 0.53846)"/>
</clipPath>
</defs>
</svg>
